<svg xmlns="http://www.w3.org/2000/svg" viewBox="0 0 1730 909" fill="none">
<path style="fill:#192223; stroke:none;" d="M1492 273C1489.2 265.305 1480.61 269.051 1480 276C1468.98 276.484 1457.45 280.694 1447 284C1425.15 290.911 1403.56 298.589 1383 308.778C1316.8 341.584 1260.16 388.658 1219.67 451C1200.23 480.926 1186.25 513.552 1171.75 546C1164.33 562.6 1157.88 579.724 1149.78 596C1145.14 605.316 1137.11 615.83 1135 626L1136 626C1162.61 582.863 1176.37 532.625 1200.25 488C1241.5 410.892 1303.44 349.667 1382 310.889C1402.87 300.587 1424.93 292.912 1447 285.667C1454.23 283.293 1461.62 281.477 1469 279.639C1471.78 278.946 1475.1 277.499 1477.97 277.5C1481.9 277.502 1483.44 281.86 1488 280.75C1492.64 279.622 1492.92 274.309 1498 273.194C1511.5 270.231 1525.33 269.31 1539 267.917C1602.43 261.452 1685.61 273.754 1712.19 341C1715.64 349.716 1718.04 359.655 1718.92 369C1722.02 402.223 1713.38 435.395 1700.61 466C1695.62 477.972 1687.46 488.907 1683 501L1680 494L1679 494L1680.61 502L1670 519L1681 505L1682 505C1694.9 552.417 1660.6 600.199 1625 627.361C1574.47 665.921 1512.8 679.784 1451 686.083C1432.42 687.977 1412.65 688.818 1394 686.917C1380.57 685.548 1367.3 683.367 1354 681C1356.7 683.893 1362.1 684.132 1366 684.778C1376.3 686.486 1386.6 687.447 1397 688.028C1437.56 690.293 1478.45 687.277 1518 677.361C1580.51 661.691 1652.16 629.07 1677.61 565C1682.58 552.498 1686 538.466 1686 525C1686 519.917 1685.58 515.019 1684.78 510C1684.36 507.377 1683.06 504.648 1684 502C1685.26 498.454 1687.98 495.313 1689.75 492C1693.59 484.802 1697.32 477.403 1700.75 470C1711.24 447.354 1717.57 422.698 1720.08 398C1720.88 390.136 1721.73 381.948 1720.92 374C1719.11 356.24 1714.91 338.46 1705.61 323C1673.65 269.87 1602.39 263.39 1547 265.972C1528.91 266.816 1509.56 268.071 1492 273M1521 322L1528 321C1525.81 319.615 1522.17 319.238 1521 322M1535 320L1535 321L1542 321L1535 320M1551 320L1551 321L1558 321L1551 320M1507 323L1514 322C1511.81 320.615 1508.17 320.238 1507 323M1565 321L1565 322L1571 322L1565 321M1578 322L1578 323L1585 324L1585 323L1578 322M1493 325L1500 324C1497.81 322.615 1494.17 322.238 1493 325M1479 326L1479 327L1486 326L1479 326M1594 325L1594 326L1599 327L1599 326L1594 325M1466 330L1473 328L1466 330M1605.67 328.333L1606.33 328.667L1605.67 328.333M1454 331L1454 332L1460 331L1454 331M1619 331L1622 333L1622 332L1619 331M1446 333L1441 335L1441 336L1446 333M1628 335L1628 336L1633 337L1633 336L1628 335M1428 339L1428 340L1435 338L1428 339M1638 339L1638 340L1644 343L1638 339M1421 341L1416 343L1416 344L1421 341M1649 345L1649 346L1655 349L1655 348L1649 345M1404 348L1404 349L1410 347L1404 348M1398 350L1393 352L1393 353L1399 351L1398 350M1659 352L1659 353L1665 356L1659 352M1382 357L1382 358L1388 356L1382 357M1376 360L1371 363L1371 364L1377 361L1376 360M1669 360L1674 365L1669 360M1361 368L1361 369L1366 367L1361 368M1678 369L1682 374L1678 369M1354 372L1348 377L1354 372M1684 378L1686 383L1687 383L1684 378M1338 382L1338 383L1343 381L1338 382M1332 388L1335 385L1332 388M1689 388L1691 394L1692 394L1689 388M1326 390L1322 393L1322 394L1326 390M1312 402L1317 398L1312 402M1693 399L1694 406L1695 406L1693 399M1307 405L1303 410L1307 405M1352 411L1351 413L1352 411M1695 412L1696 417L1697 417L1695 412M1293 418L1299 413L1293 418M1349 413C1339.71 420.443 1329.86 427.064 1321 435.083C1289.76 463.354 1261.71 499.443 1251.42 541C1248.45 552.994 1248 564.723 1248 577L1249 577C1249 529.717 1271.93 489.424 1303.08 455C1313.68 443.29 1325.71 432.864 1338 423C1340.39 421.085 1349.75 416.114 1349 413M1288 422L1285 426L1288 422M1696 423L1696 429L1697 429L1696 423M1280 430L1276 436L1280 430M1696.33 434.667L1696.67 435.333L1696.33 434.667M1271 440L1268 445L1271 440M1695 440L1694 448L1695 448L1695 440M1542 445L1542 446L1575 445L1586 446L1572 444L1542 445M1508 449L1508 450L1540 446L1531 445.917L1508 449M1591 445L1592 446L1591 445M1594 446L1595 447L1594 446M1598 446L1598 447L1601 447L1598 446M1602 447L1603 448L1602 447M1503 449L1503 450L1506 450L1503 449M1263 450L1260 455L1263 450M1692 456L1691 462L1692 462L1692 456M1255 460L1252 466L1253 466L1255 460M1656 466L1657 467L1656 466M1659 468L1667 475L1659 468M1689 468L1687 473L1688 473L1689 468M1248 470L1242 481L1243 481L1248 470M1515 475.389C1494.11 479.15 1475.44 490.799 1468.44 512C1456.38 548.586 1488.37 590.96 1528 583.611C1554 578.79 1573.76 557.878 1574.97 531C1576.35 500.337 1546.56 469.706 1515 475.389M1668 476L1678 493L1679 493C1677.57 486.831 1673.43 479.406 1668 476M1685 478L1684 483L1685 483L1685 478M1238 486L1235 492L1236 492L1238 486M1389 487L1390 488L1389 487M1667 523L1666 523C1646.7 549.62 1619.34 571.614 1590 586.222C1580.49 590.96 1569.52 597.057 1559 599L1559 598L1565 596L1565 595C1560.29 596.091 1556.43 598.966 1552 600.806C1545.58 603.472 1538.73 605.428 1532 607.139C1480.05 620.343 1421.21 628.674 1369 612C1359.64 609.01 1350.05 605.373 1342 599.611C1337.38 596.305 1332.88 592.541 1329.42 588C1326.88 584.671 1324.41 580.971 1323.03 577C1312.96 548.122 1341.01 522.768 1361 506.806C1369.05 500.374 1378.34 492.783 1388 489C1385.05 487.668 1381.67 490.598 1379 492.194C1371.72 496.553 1364.71 501.45 1358 506.639C1337.23 522.693 1310.66 550.328 1322.19 579C1323.99 583.456 1326.37 587.254 1329.39 591C1348.7 614.985 1385.87 618.216 1414 621.083C1439.97 623.731 1466.29 621.046 1492 617.222C1537.6 610.44 1583.26 596.501 1621 569.389C1632.34 561.242 1642.15 551.853 1652 542C1657.59 536.407 1664.06 530.518 1667 523M1231 497L1228 504L1229 504L1231 497M1224 510L1222 516L1223 516L1224 510M1218 522L1215 529L1216 529L1218 522M1211 536L1209 541L1210 541L1211 536M1205 547L1203 554L1204 554L1207 547L1205 547M1199 560L1196 567L1197 567L1199 560M1193 572L1190 579C1192.28 577.422 1194.9 574.776 1193 572M1249 582C1249 617.913 1279.32 649.372 1309 665.25C1317.38 669.731 1326.53 675.252 1336 677L1336 676C1329.14 672.676 1321.76 670.366 1315 666.75C1293.19 655.08 1274.16 639.447 1261.39 618C1257.01 610.647 1253.93 602.301 1251.86 594C1250.98 590.44 1251.11 584.866 1249 582M1187 584L1184 591L1185 591L1187 584M1568 593L1568 594L1572 593L1568 593M1566 594L1567 595L1566 594M1181 596L1179 601L1180 601L1181 596M1558 599.333C1558.95 599.477 1557.89 599.894 1557.67 599.667L1558 599.333M1176 606L1173 612L1174 612L1176 606M1169 617L1168 621L1169 621L1169 617M1166 623L1163 628L1166 623M1134 627C1123.26 642.702 1114.8 659.757 1101.92 674C1069.34 710.001 1025.5 733.97 977 739.083C968.042 740.028 959.026 742 950 742L950 743C1008.7 743 1063.91 718.568 1103 675C1112.68 664.208 1120.3 652.231 1127.97 640C1129.77 637.127 1135.25 630.271 1134 627M1159 634L1156 640L1159 634M1151 645L1147 653L1153 645L1151 645M1143 657L1142 660L1143 657M1133 670L1130 675L1133 670M1123 682L1120 687L1123 682M1114 692L1111 696L1114 692M425 759C423.254 753.959 418.157 751.83 413 753.472C411.228 754.037 409.597 755.849 407.778 756.056C405.744 756.287 403.633 754.617 402 753.611C385.693 743.569 369.431 733.455 353 723.611C345.615 719.187 337.324 712.215 329 710L329 711L378 740.806L397 752.389L405.583 758.222L407 766L283 820C280.712 810.817 267.439 810.902 265 820L223 807.611L120 778L120 774L125 772L125 771L108 766.472L101.5 772L97.9722 781.722L8 828C6.64262 824.095 3.97503 822.734 0 822L0 842C10.2126 840.842 6.11046 831.261 13 827.25C32.696 815.783 53.6045 805.933 74 795.778C79.9989 792.791 86.0906 789.912 92 786.75C94.3879 785.472 97.1981 782.863 99.9722 782.583C103.858 782.191 106.56 787.155 111 786.889C115.997 786.589 117.845 781.173 122.028 780.722C125.924 780.302 131.292 782.878 135 784C143.95 786.707 153.002 789.078 162 791.611C190.715 799.694 219.29 808.275 248 816.389C251.954 817.506 259.756 818.51 262.667 821.5C267.193 826.149 265.005 833.073 274 833C278.126 832.967 282.062 831.183 283.5 827C284.156 825.093 283.837 822.868 285.333 821.306C288.576 817.92 295.713 816.173 300 814.389C325.466 803.793 350.543 792.23 376 781.611C386.334 777.301 397.018 770.277 408 768C409.924 773.352 417.048 774.939 421.917 772.056C423.692 771.004 425.14 768.061 427.389 768.167C434.316 768.492 443.505 773.889 450 776.389C481.143 788.374 512.184 800.581 543 813.389C552.343 817.272 561.762 821.122 571 825.25C576.435 827.679 582.151 830.787 588 832L588 831L540 810.611L465 780.389L438 770.194L427.417 765.694L426 760C437.466 757.341 449.305 750.205 460 745.25C482.744 734.712 505.762 723.597 529 714.25C534.91 711.873 538.549 719.965 545 716.889C551.533 713.773 553.171 703.567 545.972 699.944C541.728 697.809 535.824 699.624 533.722 704C532.668 706.195 533.36 708.821 531.667 710.75C529.038 713.746 523.557 715.102 520 716.75C499.489 726.253 478.499 734.72 458 744.25C447.164 749.288 436.202 754.867 425 759M1103 702L1102 704L1104 704L1103 702M325 707L326 708L325 707M721 714L722 715L721 714M710 717L711 718L710 717M713 717L714 718L713 717M1083 718L1082 720L1084 720L1083 718M176 749L177 750L176 749M171 751L172 752L171 751M173 751L174 752L173 751M169 752L170 753L169 752M167 753L168 754L167 753M165 754L166 755L165 754M159 756L159 757L164 756L159 756M157 757L158 758L157 757M147 761L148 762L147 761M145 762L144 764L145 762M140 764L141 765L140 764M138 765L139 766L138 765M961 770L961 771L972 769L961 770M128 769L126 770L126 771L128 769M688 789C692.383 791.768 696.549 795.547 701.972 792.306C705.232 790.357 705.768 786.322 710 786.028C716.133 785.602 721.96 786.691 728 786.972C736.98 787.391 746.013 786.785 755 787C803.104 788.149 851.133 786.796 899 781.917C919.404 779.837 939.667 773.663 960 772C956.019 769.577 947.543 773.024 943 773.778C928.04 776.259 912.883 777.973 898 780.611C882.552 783.349 866.557 782.498 851 784.083C814.07 787.847 776.197 786 739 786C734.923 786 731.038 785.07 727 785C721.576 784.906 715.323 785.94 710 784.889C705.836 784.066 705.999 779.681 702.917 777.5C698.926 774.676 691.683 775.444 689.417 780.083C688.03 782.922 688.313 785.957 688 789M666 800L667 801L666 800M664 801L665 802L664 801M662 802L663 803L662 802M660 803L661 804L660 803M658 804L659 805L658 804M656 805L649 809L649 810L657 806L656 805M1127.67 807.333L1128.33 807.667L1127.67 807.333M647 810L648 811L647 810M645 811L617 825.75L608 832L646 812L645 811M1088 820L1089 821L1088 820M1184 820L1185 821L1184 820M1079 823L1079 824L1083 823L1079 823M1173 823L1173 824L1176 824L1173 823M1077 824L1078 825L1077 824M1071 826L1071 827L1076 826L1071 826M1061 830L1061 831L1065 830L1061 830M1151 831L1151 832L1154 832L1151 831M1055 832L1043 837L1043 838L1056 833L1055 832M1141 835L1141 836L1145 835L1141 835M1022 846L1022 847L1042 839L1022 846M1111 848L1111 849C1114.76 847.841 1116.52 849.927 1120 849.639C1124.45 849.27 1125.37 844.564 1126 841L1122 840L1124 843L1118 841L1121 840C1116.55 838.012 1114.15 845.649 1111 848M1116.67 842.667L1116.33 843.333L1116.67 842.667M1017 848L1017 849L1021 848L1017 848M1015 849L1016 850L1015 849M1100 852L1100 853L1106 851L1100 852M1011 851L1012 852L1011 851M1009 852L1010 853L1009 852M1089 857L1089 858L1095 856L1089 857M633 857L634 858L633 857M636 858L637 859L636 858M1081 861L1077 863L1077 864L1082 862L1081 861M1070 866L1066 870L1070 866M1055 876L1061 873L1055 876M1044 882L1050 879L1044 882M776 884L777 885L776 884M1038 884L1032 888L1032 889L1038 884M768 888L771 887L768 888M757 890L758 891L757 890M1020 895L1020 896L1028 892L1020 895M748 893L748 894L752 894L748 893M743 895L740 898L744 896L743 895M730 900L730 901L736 900L730 900M1013 899L1008 904L1013 899M720 904L720 905L725 904L720 904M711 908L711 909L715 908L711 908M1000 909L1003 907L1000 909z"/>

<path style="fill:#0E5454; stroke:none;" d="M1580 72L1580 73L1587 73L1587 71L1580 72M1594 71L1594 73L1601 73L1601 71L1594 71M1608 71L1608 73L1615 73L1615 71L1608 71M1566 73L1566 74L1574 73L1566 73M1621 72L1621 73L1629 73L1621 72M1553 73L1553 75L1560 74L1553 73M1635 73L1635 74L1642 75L1635 73M1539 75L1539 76L1545 76L1545 74L1539 75M1649 74L1649 75L1656 76L1656 74L1649 74M1525 76L1525 78L1532 77L1525 76M1663 76L1663 77L1670 78L1670 76L1663 76M1511 79L1511 80L1518 79L1511 79M1676 78L1676 79L1683 80L1676 78M1690 80L1696 83L1696 82L1690 80M1496 82L1496 83L1502 82L1496 82M1702 84L1709 86L1702 84M1482 85L1482 86L1489 85L1482 85M1470 88L1470 89L1477 87L1470 88M1714 87L1714 88L1721 90L1714 87M1458 91L1458 92L1465 90L1458 91M1727 91L1730 93L1727 91M1446 96L1452 94C1449.71 92.721 1447.04 93.4395 1446 96M1440 96L1430 100L1430 101L1441 97L1440 96M1422 102L1417 106C1419.1 105.575 1423.56 104.791 1422 102M1404 111L1411 107L1404 111M1393 116L1399 112L1393 116M1386 117L1381 120L1381 121C1383.2 120.75 1387.61 119.911 1386 117M1369 128L1376 123L1369 128M1357 134L1363 130L1357 134M1345 141L1352 136L1345 141M1333 148L1340 143L1333 148M1322 156L1328 151L1322 156M1312 163L1318 158L1312 163M1307 165L1302 171C1304.21 169.853 1308.52 167.841 1307 165M1291 179L1298 173L1291 179M1282 187L1287 182L1282 187M1272 196L1278 191L1272 196M1264 204L1269 199L1264 204M1259 207L1255 213L1259 207M1251 216L1246 222C1248.45 221.163 1252.57 218.97 1251 216M1242 226L1238 232L1242 226M1233 236L1230 241L1235 236L1233 236M1225 246L1222 252L1227 246L1225 246M1217 257L1215 262L1219 257L1217 257M1204 279C1207.48 277.408 1213.25 276.725 1213.67 272C1213.85 269.919 1212.79 268.096 1213 266C1211.05 266.19 1208.87 265.855 1206.97 266.278C1200.28 267.769 1203.63 274.478 1204 279M1201 281L1198 288L1203 281L1201 281M1195 292L1192 297C1194.23 296.132 1196.45 294.49 1195 292M1189 302L1187 308L1188 308L1191 302L1189 302M1183 313L1181 319L1182 319L1185 313L1183 313M1178 324L1175 331C1177.19 329.428 1179.6 326.696 1178 324M1612 324.528C1605.3 326.705 1608.01 337.467 1615 335.25C1622.19 332.97 1618.52 322.408 1612 324.528M1613 325L1612 326L1613 325M1172 336L1169 343L1174 336L1172 336M1167 348L1165 354C1167.29 352.873 1168.58 350.31 1167 348M1162 360L1159 367C1161.72 365.904 1163.91 362.795 1162 360M1157 373L1155 381L1156 381L1157 373M1152 386L1151 391L1152 391L1154 386L1152 386M1149 396L1147 405L1148 405L1149 396M1145 410L1143 417C1145.55 415.745 1146.78 412.461 1145 410M1141 423L1140 429L1143 423L1141 423M1138 435L1137 442L1138 442L1140 435L1138 435M1537 445L1537 446C1564.39 446 1591 444.228 1618 450.861C1625.49 452.702 1632.98 454.988 1640 458.25C1645.2 460.666 1650.4 464.802 1656 466C1649.66 457.716 1633.82 453.086 1624 450.639C1609.3 446.976 1594.11 444.732 1579 444.028C1564.95 443.373 1550.97 445 1537 445M1527 446L1527 447L1533 447L1527 446M1518 447L1518 448L1525 448L1518 447M1135 448L1134 455L1135 455L1135 448M1508 449L1508 450L1512 449L1508 449M1513 448L1513 449L1517 449L1513 448M1251 576L1248 575C1246.85 582.468 1238.35 590.023 1233.86 596C1222.87 610.644 1213.05 626.124 1202.39 641C1184.95 665.328 1167.43 689.81 1145 709.917C1089.47 759.684 1021.04 786.862 949 802.611C909.909 811.157 870.19 815.649 831 823.389C825.778 824.42 817.204 827.425 812 826.444C808.793 825.84 807.133 822.367 804 821.528C798.415 820.032 795.14 825.266 795 830C782.429 831.218 769.28 835.127 757 838.139C731.36 844.427 706.07 851.31 681 859.667C676.939 861.02 670.315 864.755 666.028 864.25C663.536 863.956 662.114 861.371 659.972 860.278C655.701 858.097 649.593 859.113 648 864L636 858L636 859C638.763 860.974 643.587 863.219 645.278 866.222C648.11 871.252 645.677 878.027 654 878.917C658.424 879.39 662.962 877.469 664.5 873C665.132 871.162 664.807 868.95 666.333 867.5C670.635 863.414 681.376 861.61 687 859.667C708.578 852.209 730.859 846.578 753 841.139C765.38 838.097 778.297 834.205 791 832.833C795.846 832.31 798.105 837.468 803 836.917C808.824 836.261 808.413 830.206 813.028 828.5C817.513 826.842 823.27 826.648 828 825.944C835.689 824.8 843.312 823.206 851 822.056C950.734 807.132 1053.72 788.194 1134 722.611C1160.02 701.356 1180.91 675.128 1200.39 648C1210.79 633.509 1220.19 618.311 1230.86 604C1235.84 597.326 1244.7 588.958 1247 581L1249 582C1251.18 576.872 1255.22 573.193 1258.78 569C1266.19 560.273 1274.5 552.55 1283 544.917C1310.21 520.47 1342.32 501.611 1376 487.611C1387.73 482.737 1400.47 476.314 1413 474L1413 475C1407.05 476.183 1393.2 480.933 1391 487L1440 465.389L1480 455.389L1505 450C1500.86 448.037 1492.56 450.903 1488 451.806C1472.81 454.812 1457.91 458.415 1443 462.611C1388.48 477.957 1335.52 499.209 1291 535C1281.07 542.983 1272.01 551.994 1263 561C1258.86 565.141 1252.69 570.267 1251 576M1132 461L1131 468L1132 468L1134 461L1132 461M1130 473L1128 480C1130.55 478.745 1131.78 475.461 1130 473M1685 480L1686 481L1685 480M1599 485L1600 486L1599 485M1127 486L1126 493L1127 493L1127 486M1389.33 486.667L1389.67 487.333L1389.33 486.667M1384 489L1385 490L1384 489M1124 499L1123 508L1124 508L1126 499L1124 499M1434 508L1435 509L1434 508M1121 514L1120 523L1121 523L1123 514L1121 514M1119 528L1117 539C1119.98 537.431 1121.02 530.745 1119 528M1383 539L1384 540L1383 539M1614 540L1615 541L1614 540M1116 544L1115 551L1116 551L1116 544M1610 547L1611 548L1610 547M1383 551L1384 552L1383 551M1113 556L1112 563L1115 556L1113 556M1384 557L1385 558L1384 557M1438 565L1439 566L1438 565M1110 570L1109 577L1110 577L1110 570M1444 570L1445 571L1444 570M1581 573L1582 574L1581 573M1107 582L1106 589L1107 589L1107 582M1402 582L1403 583L1402 582M1560 582L1561 583L1560 582M1412.67 589.333L1413.33 589.667L1412.67 589.333M1104 595L1102 603L1103 603L1104 595M1100 607L1098 614L1102 607L1100 607M1096 619L1094 627L1095 627L1096 619M1091 632L1087 641C1089.96 639.807 1093.09 635.048 1091 632M1084 647L1081 654L1082 654L1084 647M1077 659L1074 665L1079 659L1077 659M1071 668L1068 674L1071 668M1333 682C1335.23 683.633 1338.48 686.527 1341.08 687.5C1356.6 693.304 1356.34 666.294 1342 671.5C1336.35 673.55 1337.45 679.306 1333 682M1064 677L1060 683C1062.51 682.097 1065.67 679.877 1064 677M1323 685L1323 686L1329 683L1323 685M1722 688L1727 684L1722 688M296 700L280 705.806L247 719.611L168 752.75L142 764L142 765L245 722.611L281 707.611L298 701C299.731 705.817 305.248 707.172 310 705.5C311.697 704.903 313.5 702.897 315.389 703.25C318.923 703.91 322.743 707.411 326 709L315 701C318.925 690.763 306.195 680.068 298.472 690.083C296.177 693.06 296 696.412 296 700M1056 686L1053 691L1056 686M1313 690L1318 688C1315.77 686.761 1313.93 687.544 1313 690M1302 692L1302 693L1308 690L1302 692M1713 694L1719 691C1716.41 689.608 1713.98 691.296 1713 694M656 733C653.774 727.82 647.778 723.719 642 726.722C637.915 728.846 637.297 732.775 632 731.306C613.366 726.135 594.74 720.909 576 716.139C567.596 714 558.723 710.258 550 710L550 711C576.23 718.492 602.75 724.97 629 732.389C631.133 732.992 634.126 733.577 635.667 735.306C639.733 739.869 638.542 746.368 647 745.972C656.061 745.548 653.892 735.82 661 733.333C680.665 726.454 701.236 722.224 721 715.667C727.245 713.595 733.695 712.188 740 710.306C742.798 709.47 747.039 707.385 749.972 707.75C752.66 708.084 753.859 711.046 756.028 712.361C761.188 715.49 767.73 713.527 770 708C816.933 725.45 864.465 741.793 915 743C931.067 743.384 945.811 745.409 961 739C958.5 737.434 955.856 738.517 953 738.944C947.766 739.728 942.292 740.908 937 741C915.599 741.371 895.122 740.088 874 736.944C841.865 732.162 810.214 721.238 780 709.611C777.332 708.584 773.2 707.619 771.722 704.917C769.193 700.291 769.98 694.83 763 694.083C758.921 693.647 754.849 695.146 752.944 699C752.058 700.794 752.16 703.205 750.667 704.667C748.503 706.785 743.849 707.452 741 708.306C722.071 713.979 703.017 719.258 684 724.611C674.853 727.186 664.633 729.099 656 733M1048 694L1043 700C1045.45 699.163 1049.57 696.97 1048 694M1292 697L1298 695C1295.71 693.721 1293.04 694.44 1292 697M1707 696L1702 701C1704.12 700.18 1708.52 698.735 1707 696M1282 701L1287 699L1282 701M1038 702L1033 706L1033 707C1035.49 706.608 1039.62 705.051 1038 702M1271 704L1271 705L1277 703L1271 704M1691 708L1697 703L1691 708M1261 710L1266 708C1263.77 706.761 1261.93 707.544 1261 710M327 708L331 712L327 708M1679 714L1687 709L1679 714M1023 713L1023 714L1029 710L1023 713M332 711L339 716L339 715L332 711M1251 714L1256 712L1251 714M1245 715L1241 717L1241 718L1245 715M1013 720L1019 716L1013 720M1668 720L1675 717C1672.32 715.513 1669.08 717.118 1668 720M342.667 718.333L343.333 718.667L342.667 718.333M1235 719L1231 723C1233.07 722.481 1236.41 721.546 1235 719M1001 725L1001 726L1008 723L1001 725M1656 725L1656 726L1664 723L1656 725M1221 726L1221 727L1227 725L1221 726M990 731L997 728C994.317 726.513 991.077 728.118 990 731M1651 727L1645 732C1647.3 731.467 1652.7 730.058 1651 727M1216 728L1214 729L1214 730L1216 728M984 731L977 734L977 735C979.073 734.903 985.922 734.144 984 731M1206 735L1210 733L1206 735M1633 738L1640 733L1633 738M965 737L965 738L972 735L965 737M1196 738L1196 739L1201 737L1196 738M1620 743L1627 739L1620 743M1185 743L1185 744L1191 742L1185 743M1604 749L1604 750L1614 746L1604 749M1176 747L1176 748L1180 747L1176 747M1171 749L1169 752L1171 749M1593 755L1600 752C1597.32 750.513 1594.08 752.118 1593 755M1161 754L1161 755L1165 754L1161 754M1581 758L1581 759L1588 757L1581 758M1152 760L1156 757L1152 760M1568 763L1568 764L1576 760L1568 763M1146 761L1142 763L1142 764L1146 761M140 764L132 768L132 769L140 764M1137 765L1133 767L1133 768L1137 765M1556 767L1556 768L1563 766L1556 767M130.333 768.667L130.667 769.333L130.333 768.667M128 769L125 771L125 772L129 770L128 769M1544 771L1544 772L1551 770L1544 771M1124 771L1124 772L1128 771L1124 771M1119 773L1117 774L1117 775L1119 773M1533 776L1539 774C1536.71 772.721 1534.04 773.44 1533 776M1109 778L1109 779L1114 777L1109 778M1526 776L1520 779L1520 780C1522.12 779.601 1527.68 779.011 1526 776M1100 782L1100 783L1105 780L1100 782M1504 783L1504 784L1514 782L1504 783M1094 784L1090 786L1090 787L1094 784M1499 784L1497 785L1497 786L1499 784M1488 789L1495 787C1492.69 785.709 1489.11 786.36 1488 789M1078 791L1078 792L1084 789L1078 791M1475 790L1475 792L1483 790L1475 790M1462 794L1462 795L1470 792L1462 794M1068 797L1073 795C1070.77 793.761 1068.93 794.544 1068 797M1449 799L1456 797C1453.57 795.52 1450.15 796.177 1449 799M1058 801L1064 799C1061.6 797.54 1059.04 798.242 1058 801M1436 802L1443 800C1440.44 798.394 1437.15 798.967 1436 802M1048 804L1048 805L1053 803L1048 804M1422 805L1430 803C1427.42 801.381 1423.25 801.932 1422 805M1415 804L1409 808C1411.07 807.43 1416.66 806.969 1415 804M1038 808L1038 809L1043 807L1038 808M1396 809L1396 810L1403 807L1396 809M1028 813L1032 810L1028 813M1382 812L1382 813L1390 810L1382 812M1370 816L1377 813L1370 816M1019 815L1019 816L1023 815L1019 815M1358 817L1358 818L1365 817L1358 817M1012 817L1009 820L1012 817M1348 819L1348 820L1353 818L1348 819M1338 822L1338 823L1345 820L1338 822M999 822L999 823L1003 822L999 822M1325 825L1325 826L1332 824L1325 825M989 827L993 824L989 827M1314 827L1314 828L1321 827L1314 827M979 830L984 828L979 830M1302 830L1302 831L1309 830L1302 830M973 830L971 831L971 832L973 830M1290 835L1297 833C1294.44 831.394 1291.15 831.967 1290 835M960 836L965 834L960 836M1278 838L1285 836C1282.57 834.52 1279.15 835.177 1278 838M949 837L949 838L955 837L949 837M1265 840L1265 841L1273 839L1265 840M939 840L939 841L945 840L939 840M1119 839L1116 846L1115 845L1121 850C1120.93 847.341 1122.8 848.402 1123.67 846C1124.96 842.42 1122.29 839.615 1119 839M933 841L929 844L933 841M1027 844L1027 845L1035 842L1027 844M1115 842L1116 843L1115 842M1253 845L1260 843C1257.69 841.709 1254.11 842.36 1253 845M1119 843L1122 847L1119 843M919 845L919 846L924 845L919 845M912 846L907 848L907 849L912 846M1241 849L1247 847C1244.71 845.721 1242.04 846.44 1241 849M1017 848L997 857.278L968 872.25L910 908L910 909L936 893.389L993 861.778L1012 852.222L1017 848M897 852L903 850C900.601 848.54 898.041 849.242 897 852M1228 852L1228 853L1235 851L1228 852M886 853L886 854L892 853L886 853M878 855L878 856L882 855L878 855M1217 856L1217 857L1223 855L1217 856M871 858L876 857L871 858M626 858L626 859L630 859L626 858M633 857L633 859L635 859L635 857L633 857M618 858L618 859L622 859L618 858M862 859L862 860L868 859L862 859M1209 859L1209 860L1213 859L1209 859M604 860L604 861L608 861L604 860M611 859L611 860L614 860L611 859M851 862L851 863L857 860L851 862M595 862L595 863L600 862L595 862M1199 863L1199 864L1206 862L1199 863M588 863L588 865L591 865L591 863L588 863M840 866L846 863L840 866M579 866L579 867L583 865L579 866M1188 869L1195 866C1192.41 864.786 1189.05 866.213 1188 869M830 869L835 866L830 869M574 867L571 869L571 870L574 867M819 872L825 869L819 872M561 872L561 873L567 870L561 872M1178 872L1178 873L1184 871L1178 872M808 874L808 875L814 872L808 874M553 875L553 876L557 875L553 875M799 878L804 875L799 878M1170 876L1170 877L1174 876L1170 876M544 880L549 878L544 880M788 880L788 881L793 880L788 880M1159 883L1165 879L1159 883M539 880L536 882L536 883L539 880M776 884L776 885L782 883L776 884M527 886L527 887L532 885L527 886M1153 884L1148 887L1148 888C1150.2 887.75 1154.61 886.911 1153 884M767 887L767 888L771 887L767 887M524 887L523 889L524 887M516 892L520 889L516 892M759 891L762 889L759 891M757.333 890.667L757.667 891.333L757.333 890.667M1138 894L1145 891C1142.15 889.419 1139.61 891.449 1138 894M508 894L508 895L513 894L508 894M499 900L505 897L499 900M1128 900L1134 897C1131.41 895.609 1128.98 897.296 1128 900M494 901L490 905L494 901M1118 906L1123 902L1118 906M484 906L480 908L480 909L484 906M712.667 907.333L713.333 907.667L712.667 907.333M1113 908L1114 909L1113 908z"/>

<path style="fill:#DF5526; stroke:none;" d="M1502 176C1504.14 175.603 1506.76 174.616 1508.92 175.333C1513.57 176.88 1519.93 181.969 1521 173L1526 172L1513.08 167.722L1507.97 172.278L1502 176M1555 172L1562 172L1562 169C1558.86 169.01 1556.13 168.657 1555 172M1530 172L1538 172C1535.71 169.561 1532.25 169.255 1530 172M1542 170L1542 172L1550 171L1542 170M1567 170L1567 171L1575 172L1575 170L1567 170M1580 170L1580 172L1588 172L1588 170L1580 170M1593 171L1593 173C1596.1 173.042 1599.78 174.471 1601 171L1593 171M1606 173L1606 174L1614 175L1614 173L1606 173M1489 178L1497 175C1493.79 174.364 1490.18 174.503 1489 178M1619 174C1620.34 177.27 1622.69 177 1626 177L1626 175L1619 174M1476 178L1476 180L1483 177L1476 178M1631 177L1631 179L1637 179L1631 177M1641 179L1649 183L1641 179M1463 183L1471 180L1463 183M1451 187L1458 183L1451 187M1655 183L1662 187L1655 183M1438 191L1446 188C1442.67 186.874 1439.24 187.302 1438 191M1667 188L1667 189L1675 192C1673.59 188.509 1670.58 188.106 1667 188M1426 195L1433 191L1426 195M1680 193L1688 198C1686.64 194.48 1683.68 193.325 1680 193M1413 199L1421 197C1418.3 195.355 1414.92 196.558 1413 199M1694 199L1700 204L1694 199M1401 205L1409 201C1405.79 200.515 1402.23 201.696 1401 205M1396 205L1390 210C1392.3 209.467 1397.7 208.058 1396 205M1705 206L1712 211L1705 206M1376 217L1386 212C1382.58 210.105 1377.15 213.471 1376 217M1716 213L1723 218C1721.76 214.558 1719.63 213.321 1716 213M1363 224L1371 219L1363 224M1728 221L1730 224L1730 221L1728 221M1351 231L1358 226L1351 231M1340 238L1348 234C1344.86 232.262 1341.05 234.763 1340 238M1330 245L1337 240L1330 245M1324 247L1319 253L1326 248L1324 247M1314 255L1309 261C1311.45 260.194 1316.15 258.049 1314 255M1299 269L1305 264L1299 269M1288 279L1296 272C1291.98 272.63 1289.17 275.052 1288 279M1284 281L1279 287C1281.45 286.163 1285.57 283.97 1284 281M1271 295L1277 290L1271 295M1263 304L1269 298L1263 304M1258 308L1254 315C1256.34 313.538 1259.98 310.949 1258 308M1246 323L1251 318L1246 323M1239 333L1244 327L1239 333M1231 343L1237 336L1231 343M1228 346L1225 353L1230 347L1228 346M1222 356L1219 362L1222 356M1493 361L1493 363L1511 363C1508.88 358.999 1497.3 361 1493 361M1513 361L1513 362L1519 363L1513 361M1358 407L1358 408C1368.72 404.836 1378.91 396.276 1389 391.278C1420.04 375.898 1457 363 1492 363C1488.51 360.799 1482 361.902 1478 362.611C1470.36 363.965 1462.6 364.275 1455 366.139C1420.62 374.571 1387.36 386.755 1358 407M1521 362L1521 363L1528 363L1521 362M1530 363L1530 364L1535 364L1530 363M1537 364L1537 365L1542 365L1537 364M1565 370L1561 369L1561 370L1564 370L1564 371C1551.94 371 1539.97 370.863 1528 372.083C1467.11 378.289 1408.07 408.997 1361 446.806C1347.28 457.83 1334.67 469.92 1322.92 483C1316.62 490.012 1309.21 497.482 1305 506C1308.07 504.829 1309.15 502.494 1311.22 500C1314.85 495.645 1318.53 491.304 1322.22 487C1332.81 474.648 1345.39 462.651 1358 452.389C1401.03 417.36 1450.48 390.307 1505 378.389C1518.98 375.333 1533.7 373 1548 373C1552.09 373 1558.11 371.887 1561.97 373.333C1565.81 374.77 1565.65 379.812 1570 381.278C1574.8 382.895 1579.54 380.916 1581 376C1595.34 380.529 1609.13 385.849 1621 395.389C1627.86 400.9 1634.52 407.836 1639.61 415C1666.86 453.31 1658.93 503.43 1632.61 540C1622 554.749 1608.48 566.352 1594 577.139C1588.21 581.454 1577.81 584.982 1574 591C1587.48 587.873 1599.59 575.897 1610 567.389C1656.99 528.963 1678.12 455.614 1635.78 406C1627.52 396.32 1616.4 387.927 1605 382.278C1598.67 379.139 1589.79 378.097 1584.11 374.083C1581.19 372.021 1582.07 367.949 1578.92 365.861C1573.87 362.518 1566.81 363.907 1565 370M1216 365L1213 371C1215.54 370.015 1217.86 367.714 1216 365M1545 365L1545 366L1549 367L1545 365M1551 366L1553 368L1553 366L1551 366M1556 367L1556 369L1558 369L1556 367M1210 375L1206 385L1207 385L1212 375L1210 375M1203 388L1201 394L1205 388L1203 388M1198 398L1195 406L1200 398L1198 398M1356 408L1357 409L1356 408M1193 410L1190 417C1192.58 415.846 1194.83 412.678 1193 410M1187 422L1186 428L1187 428L1189 422L1187 422M1184 431L1180 444L1181 444C1182.58 440.742 1187.04 433.833 1184 431M1177 451L1175 458L1179 451L1177 451M1173 463L1171 470L1175 463L1173 463M1668 466L1668 474L1670 474L1670 466L1668 466M1170 474L1168 483L1169 483L1170 474M1667 476L1667 480L1668 480L1667 476M1682 487L1680 493L1681 493L1682 487M1166 488L1164 496C1167.06 494.608 1168.88 490.467 1166 488M1678 496L1676 502L1677 502L1678 496M1163 501L1161 509C1163.97 507.643 1165.61 503.431 1163 501M1675 503L1671 514L1672 514L1675 503M1303 507L1303 509L1305 509L1305 507L1303 507M1300 513L1303 510L1300 513M1160 514L1159 522L1162 514L1160 514M1297 515L1297 517L1299 517L1299 515L1297 515M1296 518L1293 523L1296 518M1667 518L1666 526C1670.19 524.898 1670.8 522.042 1670 518L1667 518M1670 520L1670 521L1668 522L1668 521L1670 520M1669 521L1669 521M1292 524L1289 530L1292 524M1157 527L1157 533L1159 527L1157 527M1663 529L1662 534L1665 529L1663 529M1287 531L1287 533L1289 531L1287 531M1285 534L1279 544L1287 534L1285 534M1156 535L1155 540L1157 540L1156 535M1659 537L1656 545L1657 545L1659 537M1154 545L1153 553L1154 553L1154 545M1652 548L1649 555L1654 548L1652 548M1151 557L1149 568C1152.7 566.308 1152.89 560.779 1153 557L1151 557M1646 557L1643 562C1645.32 561.15 1647.74 559.583 1646 557M1632 576L1642 565L1632 576M1148 572L1147 579L1148 579L1150 572L1148 572M1629 578L1623 586C1625.39 584.534 1630.65 581.116 1629 578M1146 583L1144 590C1146.75 588.743 1147.91 585.594 1146 583M1615 594L1621 588L1615 594M1142 595L1141 601L1144 595L1142 595M1610 597L1605 603C1607.45 602.163 1611.57 599.97 1610 597M1139 605L1137 612C1140.33 610.709 1140.9 608.468 1141 605L1139 605M1595 612L1602 606L1595 612M1729 606C1650.79 684.206 1545.97 728.073 1440 754.639C1413.39 761.31 1386.69 767.318 1360 773.639C1357.35 774.267 1353.73 775.934 1351 775.444C1348.69 775.031 1347.22 772.982 1345 772.333C1339.03 770.589 1335.17 774.293 1335 780L1314 784.139L1280 792.139L1252 800L1252 801C1260.01 800.648 1268.24 797.307 1276 795.361C1294.07 790.831 1312.62 785.36 1331 782.389C1336.02 781.578 1338.6 787.018 1344 785.75C1349.15 784.541 1348.89 778.579 1354 777.222C1367.49 773.638 1381.43 771.472 1395 768.139C1459.37 752.325 1523.66 735.206 1584 707.25C1599.14 700.234 1614.63 693.548 1629 685C1657 668.346 1684.74 650.866 1709 628.917C1714.7 623.76 1720.66 618.521 1726 613C1727.85 611.089 1730.76 608.611 1729 606M1591 614L1586 620C1588.34 618.993 1592.56 616.935 1591 614M1135 617L1134 622L1137 617L1135 617M1576 627L1583 622L1576 627M1133 624L1131 631L1132 631L1135 624L1133 624M1563 637C1567.32 636.38 1572.47 633.263 1574 629L1563 637M1559 639L1553 646C1555.29 644.697 1560.61 642.012 1559 639M1123 640L1115 656L1126 640L1123 640M1543 653L1550 647L1543 653M1532 660L1539 655L1532 660M1138 665L1142 661L1138 665M1522 667L1529 662L1522 667M1515 672L1520 668L1515 672M1104 669L1100 676L1101 676L1104 669M1504 678L1511 674C1507.82 673.555 1505.16 674.794 1504 678M1125 680L1126 681L1125 680M1495 684L1498 682L1495 684M1485 690L1492 685L1485 690M1115 692L1118 689L1115 692M1474 696L1482 692C1478.75 690.04 1475.08 692.641 1474 696M1109 696L1105 702L1109 696M1461 701L1461 702L1470 697L1461 701M1457 703L1458 704L1457 703M1085 719C1090.42 716.197 1100.21 710.024 1102 704C1096.63 705.832 1086.66 713.427 1085 719M1446 709C1449.21 709.485 1452.77 708.304 1454 705L1446 709M1435 715L1442 712C1439.32 710.513 1436.08 712.118 1435 715M1430 715L1424 720C1426.3 719.467 1431.7 718.058 1430 715M1012 757C1030.3 751.219 1048.55 743.079 1065 733.194C1070.05 730.161 1080.12 725.822 1082 720L1063 731.611L1031 747.611L1012 757M1412 725L1419 721L1412 725M1400 730L1408 726C1404.68 725.489 1401.16 726.544 1400 730M1388 735L1395 732C1392.08 730.224 1389.04 731.823 1388 735M1375 739L1383 736C1380.05 735.199 1376.29 735.817 1375 739M1362 744L1370 740L1362 744M1350 748L1357 744L1350 748M659 748L664 753L659 748M1338 752L1345 750C1342.57 748.52 1339.15 749.177 1338 752M1331 752L1325 756C1327.18 755.782 1332.74 755.108 1331 752M666 755L671 760L666 755M1000 760L1000 761L1011 757L1000 760M1312 759C1315.09 759.873 1318.72 759.39 1320 756L1312 759M1300 762L1300 763L1308 761L1300 762M988 763L987 765L989 765L988 763M990.667 763.333L991.333 763.667L990.667 763.333M1288 767L1295 763L1288 767M985 764L986 765L985 764M676 765L679 768L676 765M977 766L976 768L978 768L977 766M1275 770L1283 768C1280.42 766.381 1276.25 766.932 1275 770M1263 771L1263 773L1270 770L1263 771M1251 776L1258 775L1258 773L1251 776M685 774L686 775L685 774M1241 777L1241 778L1248 776L1241 777M1230 780L1230 781L1238 779L1230 780M1217 783L1217 784L1225 781L1217 783M1205 786L1205 787L1212 784L1205 786M1194 790L1201 787L1194 790M687 789L688 790L687 789M1189 789L1183 792C1185 792.391 1190.85 792.309 1189 789M685 790L686 791L685 790M1169 795L1169 796L1179 794L1169 795M1152 800L1152 801L1166 796L1152 800M1143 802L1143 803L1150 800L1143 802M1240 804C1243.48 803.847 1248.61 803.673 1250 800L1240 804M1139 803L1140 804L1139 803M1130 806L1130 807L1135 804L1130 806M1137 804L1138 805L1137 804M1229 807L1237 805C1234.42 803.381 1230.25 803.932 1229 807M1197 815L1197 816L1219 810.611L1227 806L1197 815M1125 807L1102 814.806L1094 819L1118 811.167L1125 807M1187 820L1192 817L1187 820M1020 818L1021 819L1020 818M1084 821L1085 822L1084 821M1178.33 821.667L1178.67 822.333L1178.33 821.667M1002 824L1001 826L1003 826L1002 824M1167.33 825.667L1167.67 826.333L1167.33 825.667M294 835C296.437 840.709 307.624 845.297 313 848.25C327.084 855.987 341.926 864.658 355 874C361.614 878.726 356.937 890.512 368 890.889C376.518 891.179 375.564 883.085 381.111 880.111C387.072 876.915 396.381 876.745 403 875.389C446.277 866.524 489.608 857.81 533 849.611C545.998 847.155 558.917 843.891 572 841.944C576.259 841.311 580.669 839.673 585 839.722C589.336 839.771 590.929 845.007 595 846.278C600.092 847.867 603.605 842.453 608 843.444C616.603 845.385 622.966 854.995 632 856C626.458 849.064 615.471 847.739 609.139 841.528C607.111 839.539 608.093 837.49 607.75 835C607.145 830.614 603.563 826.486 599 826.083C594.819 825.714 590.62 828.259 588.722 832C587.79 833.836 587.841 836.098 585.889 837.278C583.428 838.766 579.77 838.754 577 839.222C571.306 840.184 565.676 841.546 560 842.611C518.967 850.315 477.921 858.085 437 866.389C423.343 869.16 409.637 871.584 396 874.389C391.271 875.362 385.888 877.587 381.028 877.5C377.102 877.43 375.124 871.634 371 870.472C365.961 869.052 362.435 874.454 358 872.722C353.06 870.793 348.535 867.115 344 864.389C334.033 858.398 323.974 852.586 314 846.611C307.547 842.745 300.995 837.739 294 835M996.333 826.667L996.667 827.333L996.333 826.667M991 828L990 830L992 830L991 828M1067 828L1068 829L1067 828M1161 828L1162 829L1161 828M283 829L283 830L293 836C291.457 831.952 287.145 829.86 283 829M1156 829L1157 830L1156 829M984.667 831.333L985.333 831.667L984.667 831.333M980 832L981 833L980 832M1149 832L1150 833L1149 832M1145 833L1146 834L1145 833M973 834L973 836L976 836L976 834L973 834M968 836L968 838L970 838L970 836L968 836M1135 837L1135 838L1138 838L1135 837M962 840L965 838L962 840M1127.33 840.667L1127.67 841.333L1127.33 840.667M956 841L956 842L959 842L956 841M949 845L952 843L949 845M945 845L942 846L942 847L945 845M939 847L940 848L939 847M936 848L933 850L933 851L936 848M930 851L931 852L930 851M926 854L929 853L926 854M920 856L923 854L920 856M914 858L917 856L914 858M910 858L908 859L908 860L910 858M905 860L906 861L905 860M901 863L904 861L901 863M895 865L898 863L895 865M889 868L892 866L889 868M881 870L881 871L886 870L881 870M875 874L878 872L875 874M871 874L870 877L873 875L871 874M864 879L867 877L864 879M860 879L860 881L862 881L862 879L860 879M854 882L852 885C853.979 884.624 855.45 884.035 854 882M845 888L848 886L845 888M840 889L837 891L837 892L840 889M831 895L834 893L831 895M825 897L825 899L827 897L825 897M819 900L819 901L822 901L819 900M815 902L814 904L816 904L815 902M811 904L810 906L812 906L811 904M805.667 908.333L806.333 908.667L805.667 908.333z"/>

<path style="fill:#9BB8B0; stroke:none;" d="M1540 444L1540 445L1548 445L1540 444M1581 444L1581 445L1587 445L1581 444M1532.67 445.333L1533.33 445.667L1532.67 445.333M1551 445L1551 446L1578 446L1569 445L1551 445M1594 445L1594 446L1597 446L1594 445M1521 446L1521 447L1524 447L1521 446M1535 446L1535 447L1539 447L1535 446M1585 446L1585 447L1592 447L1585 446M1602 446L1602 447L1605 447L1602 446M1514.67 447.333L1515.33 447.667L1514.67 447.333M1525 447L1525 448L1528 448L1525 447M1595 447L1595 448L1601 448L1595 447M1604 448L1604 449L1611 448L1604 448M1507.67 448.333L1508.33 448.667L1507.67 448.333M1518.67 448.333L1519.33 448.667L1518.67 448.333M1609 449L1609 450L1616 449L1609 449M1500 449L1500 450L1503 450L1500 449M1511.67 449.333L1512.33 449.667L1511.67 449.333M1615 450L1615 451L1621 450L1615 450M1494 450L1494 451L1497 451L1494 450M1504 450L1504 451L1507 451L1504 450M1619 451L1619 452L1624 451L1619 451M1488 451L1488 452L1492 452L1488 451M1499 451L1499 452L1502 452L1499 451M1623 452L1623 453L1628 452L1623 452M1484.67 452.333L1485.33 452.667L1484.67 452.333M1493 452L1493 453L1496 453L1493 452M1627 453L1627 454L1631 453L1627 453M1478 453L1478 454L1482 454L1478 453M1488 453L1488 454L1491 454L1488 453M1630 454L1630 455L1634 454L1630 454M1474 454L1474 455L1477 455L1474 454M1483.67 454.333L1484.33 454.667L1483.67 454.333M1635 454L1633 455L1633 456L1635 454M1469 455L1469 456L1472 456L1469 455M1478.67 455.333L1479.33 455.667L1478.67 455.333M1636 457L1639 456L1636 457M1465 456L1465 457L1468 457L1465 456M1473.67 456.333L1474.33 456.667L1473.67 456.333M1638 457L1638 458L1650 462L1650 461L1646 461L1647 459L1644 460L1645 458L1642 459L1643 457L1640 458L1641 456L1638 457M1461 457L1461 458L1467 459L1467 458L1461 457M1469.67 457.333L1470.33 457.667L1469.67 457.333M1453 459L1453 460L1463 460L1453 459M1450.67 460.333L1451.33 460.667L1450.67 460.333M1457.67 460.333L1458.33 460.667L1457.67 460.333M1446.67 461.333L1447.33 461.667L1446.67 461.333M1453.67 461.333L1454.33 461.667L1453.67 461.333M1649 461L1648 462L1649 461M1443 462L1444 463L1443 462M1449.67 462.333L1450.33 462.667L1449.67 462.333M1651 462L1650 464L1651 462M1439.67 463.333L1440.33 463.667L1439.67 463.333M1446 463L1447 464L1446 463M1653 463L1652 465L1653 463M1436 464L1437 465L1436 464M1442 464L1443 465L1442 464M1432.67 465.333L1433.33 465.667L1432.67 465.333M1439 465L1440 466L1439 465M1465.67 465.333L1466.33 465.667L1465.67 465.333M1530.67 465.333L1531.33 465.667L1530.67 465.333M1537.67 465.333L1538.33 465.667L1537.67 465.333M1429.67 466.333L1430.33 466.667L1429.67 466.333M1435.67 466.333L1436.33 466.667L1435.67 466.333M1463 466L1464 467L1463 466M1517 466L1518 467L1517 466M1523 466L1524 467L1523 466M1655 466L1656 467L1655 466M1425.67 467.333L1426.33 467.667L1425.67 467.333M1432.67 467.333L1433.33 467.667L1432.67 467.333M1459 467L1458 469L1460 469L1459 467M1553.67 467.333L1554.33 467.667L1553.67 467.333M1423 468L1424 469L1423 468M1429.67 468.333L1430.33 468.667L1429.67 468.333M1506 468L1507 469L1506 468M1560 468L1560 469L1563 469L1560 468M1420 469L1421 470L1420 469M1427 469L1428 470L1427 469M1567 469L1567 471L1569 471L1567 469M1416 470L1416 471L1419 471L1416 470M1424.67 470.333L1425.33 470.667L1424.67 470.333M1454 470L1455 471L1454 470M1413.67 471.333L1414.33 471.667L1413.67 471.333M1422 471L1423 472L1422 471M1410 472L1410 473L1413 476L1414 476L1413 474L1417 475L1417 474L1410 472M1420 472L1421 473L1420 472M1449.67 472.333L1450.33 472.667L1449.67 472.333M1494 472L1495 473L1494 472M1574 472L1575 473L1574 472M1408 473L1412 477L1408 473M1418 473L1419 474L1418 473M1447 473L1448 474L1447 473M1489 473L1490 474L1489 473M1404.67 474.333L1405.33 474.667L1404.67 474.333M1487 474L1488 475L1487 474M1579 474L1580 475L1579 474M1401.67 475.333L1402.33 475.667L1401.67 475.333M1407 475L1410 478L1407 475M1443 475L1444 476L1443 475M1398.67 476.333L1399.33 476.667L1398.67 476.333M1404 476L1406 478L1404 476M1480 476L1481 477L1480 476M1585.33 476.667L1585.67 477.333L1585.33 476.667M1396 477L1397 478L1396 477M1401 477L1402 478L1401 477M1439 477L1440 478L1439 477M1393 478L1393 479L1397 480L1397 479L1393 478M1398 478L1399 479L1398 478M1407 478L1408 479L1407 478M1391 479L1392 480L1391 479M1401 479L1402 480L1401 479M1405 479L1406 480L1405 479M1589 479L1590 480L1589 479M1388 480L1389 481L1388 480M1393 480L1394 481L1393 480M1403 480L1404 481L1403 480M1385 481L1385 482L1388 483L1385 481M1390 481L1391 482L1390 481M1401 481L1402 482L1401 481M1433 481L1434 482L1433 481M1465 484L1469 482L1465 484M1383 482L1384 483L1383 482M1396 482L1398 484L1396 482M1399 482L1400 483L1399 482M1430.67 482.333L1431.33 482.667L1430.67 482.333M1595 482L1596 483L1595 482M1380 483L1380 484L1383 485L1380 483M1385 483L1386 484L1385 483M1394 483L1396 485L1394 483M1378 484L1379 485L1378 484M1392 484L1394 486L1392 484M1376 485L1378 487L1376 485M1380 485L1381 486L1380 485M1390 485L1391 486L1390 485M1426 485L1427 486L1426 485M1459.67 485.333L1460.33 485.667L1459.67 485.333M1599 485L1600 486L1599 485M1373 486L1373 487L1376 488L1373 486M1371 487L1372 488L1371 487M1387 487L1389 489L1387 487M1390 487L1391 488L1390 487M1456 487L1456 489L1458 487L1456 487M1369 488L1371 490L1369 488M1373 488L1374 489L1373 488M1385 488L1387 490L1385 488M1421.33 488.667L1421.67 489.333L1421.33 488.667M1367 489L1369 491L1367 489M1364 490L1365 491L1364 490M1418 490L1417 492L1419 492L1418 490M1605.33 490.667L1605.67 491.333L1605.33 490.667M1362 491L1363 492L1362 491M1366 491L1367 492L1366 491M1451 491L1450 493L1451 491M1360 492L1361 494L1358 493L1358 494L1363 494L1363 493L1360 492M1364 492L1365 493L1364 492M1607 493L1609 495L1607 493M1355 497L1356 497L1355 495L1358 496C1356.32 494.338 1354.61 494.116 1355 497M1413.67 494.333L1414.33 494.667L1413.67 494.333M1352 496L1354 498L1352 496M1610.33 496.667L1610.67 497.333L1610.33 496.667M1350 497L1351 499L1350 499C1347.24 498.26 1344.55 498.589 1345 502L1342 501L1342 504L1345 500C1347.2 500.495 1353.43 500.243 1350 497M1410 497L1411 498L1410 497M1348 499.333C1348.95 499.477 1347.89 499.894 1347.67 499.667L1348 499.333M1407 499L1407 501L1409 499L1407 499M1612.33 499.667L1612.67 500.333L1612.33 499.667M1440.33 500.667L1440.67 501.333L1440.33 500.667M1340 502L1341 503L1340 502M1405 502L1406 503L1405 502M1338 503L1339 504L1338 503M1336 504L1336 507L1333 506L1334 508L1331 507L1329 510L1330 508L1329 508L1329 511L1326 510L1326 513L1337 507L1336 504M1340 504L1341 505L1340 504M1437 504L1436 506L1437 504M1338 505L1339 506L1338 505M1400.67 506.333L1401.33 506.667L1400.67 506.333M1615 506L1616 507L1615 506M1433 508L1433 510L1435 508L1433 508M1616 510L1617 511L1616 510M1324 511L1323 515L1324 515L1324 511M1396 512L1397 513L1396 512M1431.33 512.667L1431.67 513.333L1431.33 512.667M1321 513L1322 514L1321 513M1318 515L1316 518L1317 516L1316 516L1315 520L1322 516L1322 515L1318 515M1393 515L1394 516L1393 515M1429 515L1430 516L1429 515M1618.33 515.667L1618.67 516.333L1618.33 515.667M1313 518L1311 523L1313 518M1310 520L1308 525L1309 525L1310 520M1618.33 521.667L1618.67 522.333L1618.33 521.667M1426 522L1427 523L1426 522M1306 523L1304 528L1306 523M1303 525L1302 527L1303 525M1618 525L1618 528L1619 528L1618 525M1425 526L1426 527L1425 526M1300 527L1301 528L1300 527M1387.33 527.667L1387.67 528.333L1387.33 527.667M1302 528L1300 531L1302 528M1617.33 530.667L1617.67 531.333L1617.33 530.667M1384.33 534.667L1384.67 535.333L1384.33 534.667M1424.33 534.667L1424.67 535.333L1424.33 534.667M1616 535L1617 536L1616 535M1383.33 539.667L1383.67 540.333L1383.33 539.667M1424 539L1425 540L1424 539M1614.33 539.667L1614.67 540.333L1614.33 539.667M1424.67 543.333L1425.33 543.667L1424.67 543.333M1612.33 543.667L1612.67 544.333L1612.33 543.667M1382 546L1384 548L1384 546L1382 546M1425 547L1427 549L1427 547L1425 547M1610 547L1610 549L1612 547L1610 547M1383.33 551.667L1383.67 552.333L1383.33 551.667M1427 551L1429 553L1429 551L1427 551M1607 551L1607 553L1609 551L1607 551M1429 554L1431 559L1432 559L1429 554M1383 556L1386 559L1383 556M1603 556L1604 557L1603 556M1434 561L1434 563L1436 563L1434 561M1386 562L1387 563L1386 562M1388 565L1389 566L1388 565M1438 565L1439 566L1438 565M1593 565L1591 568L1593 565M1440.67 567.333L1441.33 567.667L1440.67 567.333M1390 569L1391 570L1390 569M1444 570L1444 572L1446 572L1444 570M1585 571L1586 572L1585 571M1393 572L1395 575L1393 572M1449 573L1450 574L1449 573M1580 573L1580 575L1582 573L1580 573M1452 575L1453 576L1452 575M1575 576L1573 577L1573 578L1575 576M1397 577L1398 578L1397 577M1457 577L1457 579L1459 579L1457 577M1398.67 579.333L1399.33 579.667L1398.67 579.333M1567 579L1567 581L1569 579L1567 579M1463.67 580.333L1464.33 580.667L1463.67 580.333M1402 582L1404 584L1404 582L1402 582M1469 582L1470 583L1469 582M1560.67 582.333L1561.33 582.667L1560.67 582.333M1474 584L1475 585L1474 584M1407 585L1409 587L1407 585M1481 586L1482 587L1481 586M1546 586L1547 587L1546 586M1487.67 587.333L1488.33 587.667L1487.67 587.333M1537.33 587.667L1537.67 588.333L1537.33 587.667M1412 588L1414 591L1412 588M1494 588L1495 589L1494 588M1531 588L1532 589L1531 588M1516.33 589.667L1516.67 590.333L1516.33 589.667M1524 589L1525 590L1524 589M1420 593L1422 595L1422 593L1420 593M1426.33 595.667L1426.67 596.333L1426.33 595.667M1560 596L1561 597L1560 596M1558 597L1559 598L1558 597M1555 599L1556 600L1555 599M1438 600L1439 601L1438 600M1552 600L1553 601L1552 600M1444.33 601.667L1444.67 602.333L1444.33 601.667M1547 602L1548 603L1547 602M1449.67 603.333L1450.33 603.667L1449.67 603.333M1455 604L1456 605L1455 604M1541 604L1542 605L1541 604M1460 605L1461 606L1460 605M1465 605L1467 607L1467 605L1465 605M1473 606L1474 607L1473 606M1480 607L1480 608L1483 608L1480 607M1487.67 607.333L1488.33 607.667L1487.67 607.333M1494.67 607.333L1495.33 607.667L1494.67 607.333M1537 607L1538 608L1537 607z"/>

</svg>

